<?xml version="1.0" encoding="UTF-8" standalone="no"?>
<!DOCTYPE svg PUBLIC "-//W3C//DTD SVG 1.1//EN" "http://www.w3.org/Graphics/SVG/1.1/DTD/svg11.dtd">
<svg width="100%" height="100%" viewBox="0 0 1000 1000" version="1.1" xmlns="http://www.w3.org/2000/svg" xmlns:xlink="http://www.w3.org/1999/xlink" xml:space="preserve" xmlns:serif="http://www.serif.com/" style="fill-rule:evenodd;clip-rule:evenodd;stroke-linejoin:round;stroke-miterlimit:2;">
    <g id="logo" transform="matrix(9.80599,0,0,9.80599,-2446.7,-1059.19)">
        <path id="Rectangle-1-copy-6" serif:id="Rectangle 1 copy 6" d="M295.478,109.122L338.724,134.252L338.789,134.252L338.789,151.336L330.767,151.336L330.763,138.928L295.35,118.365L260.033,138.89L260.033,179.15L295.35,199.654L330.763,179.112L330.767,166.664L338.789,166.664L338.789,183.657L338.658,183.657L338.785,183.748L295.478,208.886L295.41,209.005L252.009,183.791L252.269,183.606L252,183.606L252,134.425L252.262,134.425L252.009,134.244L295.41,109.003L295.478,109.122Z" style="fill:white;"/>
        <path id="Ellipse-1-copy" serif:id="Ellipse 1 copy" d="M340.268,161.555L308.887,161.555L304.62,171.444C304.233,172.421 303.251,173.013 302.181,172.913C301.131,172.804 300.278,172.012 300.099,170.977L296.33,149.106L292.222,171.495C292.022,172.6 291.06,173.139 289.929,173.139L289.899,173.139C288.781,173.139 287.813,172.644 287.586,171.555L284.452,156.651L282.388,160.191C281.965,160.905 281.277,161.555 280.444,161.555L260.023,161.555C259.965,161.555 260.061,156.445 260.023,156.445L278.985,156.445L283.495,149.19C283.99,148.358 284.942,147.905 285.914,148.069C286.876,148.228 287.641,148.958 287.837,149.906L289.735,159.014L294.061,135.169C294.264,134.052 295.242,133.276 296.386,133.276L296.397,133.276C297.543,133.276 298.521,134.066 298.713,135.187L303.331,161.954L304.817,158.214C305.171,157.317 306.459,156.445 307.429,156.445L340.268,156.445C341.109,155.134 342.582,154.267 344.256,154.267C345.93,154.267 347.403,155.134 348.245,156.445L348.271,156.445L348.268,156.484C348.733,157.211 349,158.075 349,159C349,159.923 348.734,160.785 348.271,161.512L348.271,161.555L348.245,161.555C347.403,162.866 345.93,163.733 344.256,163.733C342.582,163.733 341.109,162.866 340.268,161.555Z" style="fill:white;"/>
    </g>
</svg>
